<svg width="25" height="37" viewBox="0 0 25 37" fill="none" xmlns="http://www.w3.org/2000/svg">
<path d="M10.9842 16.3857C10.4744 18.0253 9.70671 19.4392 8.72709 20.7653C6.14913 24.2514 5.09217 29.3144 8.36617 32.7691C9.05935 33.4996 10.778 34.4557 10.0619 35.7975C9.3057 37.2114 7.64721 37.0515 6.46994 36.5029C4.11732 35.4077 2.40345 33.5873 1.32835 31.0417C-0.894426 25.775 -0.304358 19.8122 2.92382 14.8966C3.4776 14.0543 4.01802 13.2769 4.54507 12.5642C5.83405 10.8232 7.00272 9.05508 8.05109 7.25978C9.2484 5.20637 9.50334 3.35987 9.1281 1.0149C9.02785 0.394177 9.32002 -0.173255 9.97883 0.0493281C14.052 1.42872 15.9425 5.72051 17.0997 9.8963C17.1064 9.92198 17.1199 9.94491 17.1385 9.96218C17.1571 9.97945 17.18 9.99029 17.2042 9.99331C17.2285 9.99633 17.253 9.99141 17.2747 9.97916C17.2963 9.96691 17.3142 9.94789 17.326 9.92452C17.6669 9.28811 18.7296 7.66106 19.5259 7.64539C19.9784 7.63494 20.2066 7.89723 20.2105 8.43227C20.2372 11.8954 20.9437 15.0596 22.3301 17.925C22.84 18.9804 23.3107 20.0108 23.7422 21.0161C26.24 26.8189 22.7053 36.3618 16.1373 36.6784C15.2321 36.7223 14.2009 36.3399 14.1551 35.2019C14.1036 33.9197 15.6331 33.277 16.2805 32.4525C18.0707 30.1671 18.1452 27.4491 17.0109 24.7342C16.6061 23.7644 16.2471 22.7278 15.9339 21.6243C15.8594 21.3651 15.7802 21.363 15.6962 21.618C15.1491 23.2482 14.728 25.079 15.4527 26.6967C15.5103 26.8257 15.5338 26.9699 15.5207 27.1133C15.5075 27.2566 15.4582 27.3935 15.3782 27.5086C15.0832 27.9318 14.5791 27.8472 14.2325 27.5619C11.7118 25.5116 11.3824 23.4018 11.4311 20.2104C11.4521 18.8164 11.3977 17.5519 11.2678 16.4171C11.2162 15.951 11.1217 15.9405 10.9842 16.3857Z" fill="#FAA607"/>
<path d="M17.1484 18.0973C16.8028 17.8381 16.4858 17.8559 16.1974 18.1506C14.6535 19.7306 13.9374 21.6994 13.5966 23.9472C13.5374 24.3422 13.4448 24.3516 13.3187 23.9754C13.0934 23.3108 12.975 22.6263 12.9635 21.922C12.9368 20.273 12.89 18.6898 12.8232 17.1725C12.7344 15.2068 12.0469 13.3854 10.1536 12.8086C9.84229 12.7145 9.58163 12.8107 9.37158 13.097C9.29665 13.1983 9.25391 13.3237 9.24978 13.4543C9.24564 13.5849 9.28034 13.7136 9.34866 13.8212C9.68093 14.3437 9.77354 14.9111 9.62651 15.5235C9.31429 16.8119 8.78438 17.9625 8.05395 19.0096C6.3926 21.3921 5.11795 23.8155 4.86588 26.7216C4.5823 29.9851 5.91711 33.0135 8.32034 34.9008C8.6908 35.1913 8.64975 35.3094 8.19717 35.255C5.28122 34.9071 2.87226 31.7188 2.11033 28.8565C1.08679 25.0026 1.36941 21.3608 2.95819 17.9311C3.617 16.5078 4.89166 14.6833 5.94576 13.2506C7.07243 11.7228 8.15803 10.0707 9.20258 8.2942C10.2481 6.51667 10.8782 4.51342 10.8439 2.3879C10.8431 2.3697 10.8471 2.35172 10.8552 2.33586C10.8634 2.32 10.8754 2.30686 10.8901 2.29785C10.9048 2.28884 10.9216 2.28429 10.9387 2.28469C10.9558 2.28509 10.9725 2.29042 10.9871 2.30012C14.3499 4.62941 15.5214 9.1908 16.3177 13.1628C16.3827 13.4868 16.5049 13.7982 16.6844 14.097C16.7587 14.2219 16.8679 14.3169 16.9956 14.3678C17.1232 14.4187 17.2623 14.4227 17.3919 14.3792C17.8044 14.2381 17.9533 13.8463 17.9218 13.4105C17.855 12.516 18.0793 11.6643 18.5949 10.8555C18.7477 10.6172 18.8384 10.6423 18.8671 10.9307C19.2394 14.7021 20.4797 17.6772 22.0637 20.9344C24.3524 25.6338 22.4934 32.2204 18.0908 34.5403C17.4568 34.8726 16.8123 35.0377 16.1573 35.0356C15.9014 35.0356 15.8747 34.9499 16.0771 34.7785C16.4753 34.4399 16.9193 34.1547 17.2429 33.744C19.4256 30.981 19.8381 27.8722 18.4804 24.4174C18.0832 23.4079 17.7318 22.3713 17.4263 21.3075C17.1914 20.4893 17.3031 19.5864 17.4091 18.74C17.4246 18.6166 17.4084 18.4911 17.3624 18.3775C17.3163 18.2639 17.2422 18.1669 17.1484 18.0973Z" fill="#FAA607"/>
</svg>
