<svg width="1440" height="74" viewBox="0 0 1440 74" fill="none" xmlns="http://www.w3.org/2000/svg">
<path d="M1440 29.4112C1438.9 28.5377 1437.29 27.3554 1436.48 27.1664C1435.17 26.8597 1432.88 24.7043 1432.88 24.7043L1428.19 21.5028L1425.66 19.7781L1420.61 16.351C1420.61 16.351 1414.5 12.1196 1411.59 10.1958C1408.69 8.272 1401.67 3.90846 1401.67 3.90846C1401.67 3.90846 1399.22 1.12539 1396.98 0.706915C1394.74 0.29047 1391.85 1.09288 1390.55 0.759723C1389.25 0.428597 1384.55 -2.23271e-05 1384.55 -2.23271e-05C1384.55 -2.23271e-05 1384.4 2.11876 1383.02 2.84804C1381.65 3.5753 1378.75 7.15268 1375.93 6.89468C1373.11 6.63669 1374.18 10.149 1374.18 10.149C1374.18 10.149 1371.3 8.17856 1369.5 6.9475L1366.75 8.40404L1361.34 4.71088L1357.73 2.24877C1357.73 2.24877 1354.04 3.62 1350.22 1.56418C1346.4 -0.491638 1344.55 12.1419 1344.55 12.1419C1344.55 12.1419 1338.46 17.9864 1336.72 18.4698C1334.98 18.9513 1321.77 16.0402 1313.82 16.1682C1305.87 16.2962 1303.06 13.2673 1303.06 13.2673C1303.06 13.2673 1291.34 18.5999 1289.32 17.7751L1273.28 17.3789L1259.2 13.3222L1255.05 21.0518L1247.32 20.7735L1222.32 18.7075L1212.98 25.1106L1202.87 23.7617L1196.38 19.3291L1193.5 17.3586L1191.33 15.8818L1187.14 16.3531L1179.17 22.0269L1174.85 19.0711L1171.45 18.9736L1163.79 17.6349L1157.48 23.8877L1146.7 29.3055C1146.7 29.3055 1144.25 26.5225 1142.73 26.5976C1141.22 26.6728 1136.3 26.6505 1136.3 26.6505L1134.99 29.0923L1127.9 33.1389L1120.81 34.4126L1116.62 34.8839L1108.89 34.6056L1105.4 41.1143C1105.4 41.1143 1100.84 44.1127 1097.66 43.6089C1094.48 43.1051 1096.35 46.0507 1096.35 46.0507L1089.62 47.5703L1087.66 51.2309L1086.57 53.2644L1069.25 44.2184L1067.73 47.0664L1055.73 48.3198L1038.66 51.6717C1038.66 51.6717 1033.08 55.6432 1031.78 55.3121C1030.48 54.9809 1022.95 59.8402 1021.43 59.9153C1019.92 59.9905 1013.19 61.51 1013.19 61.51L1004.43 64.9797C1004.43 64.9797 994.338 58.085 990.734 55.6229C987.129 53.1608 982.292 52.08 980.993 51.7469C979.693 51.4158 972.9 51.2228 969.723 50.719C966.544 50.2152 961.004 48.6083 961.004 48.6083C961.004 48.6083 953.777 43.7166 951.253 41.9919C948.73 40.2672 943.18 35.922 939.566 36.2328C935.951 36.5436 929.747 33.4172 927.869 33.2465C925.992 33.0759 920.641 33.8682 916.666 33.9311C912.692 33.9961 911.828 32.8504 911.828 32.8504L901.051 35.4954C901.051 35.4954 892.314 33.4192 889.421 34.2216C886.529 35.0241 887.62 32.9906 887.62 32.9906C887.62 32.9906 881.046 32.3913 880.391 33.6122C879.736 34.8331 876.263 35.796 876.263 35.796L872.64 38.8797L869.035 36.4176L863.267 32.4766L855.299 38.1505C855.299 38.1505 851.171 40.3342 850.091 39.5968C849.01 38.8574 847.341 41.0534 847.341 41.0534L841.127 40.6999C841.127 40.6999 834.325 43.2798 833.026 42.9487C831.726 42.6176 828.112 42.9284 828.112 42.9284L819.441 42.5648C819.441 42.5648 813.312 38.378 811.51 37.1469C809.708 35.9159 807.745 39.5765 807.745 39.5765C807.745 39.5765 802.318 41.4292 800.294 41.5287C798.271 41.6283 797.841 40.5943 797.841 40.5943C797.841 40.5943 794.531 36.6655 792.794 37.1469C791.057 37.6284 787.747 33.6996 787.747 33.6996L785.583 32.2227C785.583 32.2227 782.833 33.6792 781.096 34.1607C779.36 34.6421 774.009 35.4344 770.899 36.6451C767.786 37.8539 766.573 33.6894 766.573 33.6894C766.573 33.6894 754.735 30.0491 752.495 29.6326C750.256 29.2141 743.9 28.2086 743.9 28.2086L739.708 28.6799L735.876 29.397L732.992 27.4265L729.387 24.9644L727.945 23.9791C727.945 23.9791 727.945 23.9791 726.863 23.2397C725.782 22.5002 718.924 20.5947 716.684 20.1783C714.445 19.7618 716.684 20.1783 713.583 18.6161C710.482 17.0519 702.749 16.7736 699.932 16.5176C697.115 16.2617 698.405 19.3657 695.227 18.8619C692.05 18.3581 689.782 26.2604 687.609 27.5565C685.436 28.8525 680.504 34.376 679.423 33.6386C678.341 32.8992 669.114 33.4741 669.114 33.4741L665.494 31.0018L660.409 32.4136L654.527 28.3955C654.527 28.3955 645.095 27.5362 641.367 29.8743C637.639 32.2125 637.294 27.0933 637.294 27.0933L629.136 25.0111L625.968 22.8476C625.968 22.8476 620.896 20.7775 617.81 20.7654C614.725 20.7511 612.725 22.1772 612.725 22.1772C612.725 22.1772 606.82 25.1208 605.461 24.1944C604.103 23.2661 596.482 23.6439 596.482 23.6439C596.482 23.6439 591.601 18.9127 589.243 18.6974C586.885 18.482 582.003 13.7508 580.644 12.8245C579.287 11.8981 572.832 15.8615 572.832 15.8615C572.832 15.8615 567.853 12.4608 566.496 11.5345C565.139 10.6082 560.16 7.20752 558.803 6.27915C557.446 5.35281 545.179 10.9291 545.179 10.9291L536.569 8.53609L528.316 7.78445L521.064 6.31978L514.895 6.29338C514.895 6.29338 509.728 5.55393 506.642 5.54174L501.104 6.64481L492.827 12.8549L486.112 13.8503L483.395 11.9956L481.478 15.571L476.393 16.9828L473.654 22.0899C473.654 22.0899 473.654 22.0899 470.486 19.9264C467.318 17.7629 466.378 27.5869 466.378 27.5869L464.735 30.6504C464.735 30.6504 458.734 34.9245 454.482 31.3228C450.23 27.721 449.302 34.0652 449.302 34.0652L447.039 32.5193C447.039 32.5193 440.037 37.5044 436.5 37.1835C436.5 37.1835 432.236 37.0616 430.331 37.1571C428.427 37.2505 424.067 38.4613 424.067 38.4613C424.067 38.4613 417.731 34.1343 416.374 33.2059C415.017 32.2775 409.586 28.5681 409.586 28.5681L395.102 32.5152C395.102 32.5152 393.163 29.2121 389.626 28.8891C386.089 28.5661 384.469 24.6698 382.838 24.2513C381.208 23.8349 377.1 20.3327 377.1 20.3327L373.788 18.0696L366.547 13.1231C366.547 13.1231 366.547 13.1231 363.546 15.2602C360.545 17.3972 359.926 12.7879 359.926 12.7879L355.293 14.5085L349.029 15.8127C349.029 15.8127 344.05 12.4121 342.241 11.1749C340.43 9.93779 337.716 8.08308 337.716 8.08308L329.535 12.9626L327.272 11.4167L322.747 8.32482L314.948 7.88196L312.208 12.989C312.208 12.989 300.847 19.1849 296.858 18.5531L291.881 15.1525L285.08 13.9966L283.437 17.06C283.437 17.06 268.884 28.0542 265.979 28.8607C263.074 29.6671 261.905 26.0796 261.905 26.0796L255.463 26.5631L252.749 24.7084L248.569 26.7378L243.139 23.0284L239.305 30.1791L235.685 27.7068L232.517 25.5433L231.147 28.0968L225.419 31.8611L218.178 26.9145L214.272 28.4341C214.272 28.4341 207.461 30.7601 205.281 31.3634C203.101 31.9688 199.469 32.9764 199.469 32.9764C199.469 32.9764 193.848 31.9281 187.953 31.3898C182.058 30.8515 173.448 28.4605 173.448 28.4605L168.363 29.8723C168.363 29.8723 160.801 39.3612 158.443 39.1459C156.085 38.9305 149.189 39.1052 149.189 39.1052C149.189 39.1052 142.675 33.9575 141.044 33.5411C139.414 33.1247 132.97 33.6081 132.97 33.6081L126.896 32.2511C126.896 32.2511 126.896 32.2511 125.266 31.8347C123.635 31.4183 120.085 34.5771 120.085 34.5771L116.465 32.1049L114.203 30.559L108.844 32.4807C108.844 32.4807 108.844 32.4807 105.021 36.1495C101.198 39.8183 101.853 33.986 101.853 33.986L94.9338 41.1224L91.7659 38.959L89.8489 42.5343L86.2291 40.062L82.1556 37.281L71.748 30.1709C71.748 30.1709 71.0927 36.0032 67.9139 37.3216C64.7351 38.638 67.9141 37.3216 66.5569 36.3932C65.1997 35.4669 59.9059 36.115 59.9059 36.115L48.42 34.4715C48.42 34.4715 48.4201 34.4715 47.6101 32.5233C46.8001 30.5752 45.9901 28.625 45.1801 26.6769C44.3701 24.7287 41.5602 24.2046 41.5602 24.2046C41.5602 24.2046 29.8297 32.241 28.5553 33.4639C27.2809 34.6868 21.564 34.9692 21.564 34.9692L16.1334 31.2598L11.6803 33.7991L7.60681 31.016L3.98706 28.5438L0 30.63V73.916L1440 73.916V29.4112Z" fill="#151515"/>
</svg>
