<svg width="60" height="60" viewBox="0 0 60 60" fill="none" xmlns="http://www.w3.org/2000/svg">
<path d="M59.75 17.75C59.5 14.5 59 12.5 58.25 10.5C57.75 8.5 56.75 6.75 55 5C53.25 3.25 51.75 2.25 49.75 1.5C47.75 0.75 45.75 0.25 42.5 0C39.25 0 38.25 0 30 0C21.75 0 20.75 0 17.75 0.25C14.5 0.25 12.25 0.75 10.25 1.5C8.5 2.25 6.75 3.25 5 5C3.25 6.75 2.25 8.5 1.5 10.25C0.75 12.25 0.25 14.5 0.25 17.75C0 20.75 0 21.75 0 30C0 38.25 0 39.25 0.25 42.25C0.5 45.5 1 47.5 1.75 49.5C2.25 51.5 3.25 53.25 5 55C6.75 56.75 8.25 57.75 10.25 58.5C12.25 59.25 14.25 59.75 17.5 60C20.75 60 21.75 60 30 60C38.25 60 39.25 60 42.25 59.75C45.5 59.5 47.5 59 49.5 58.25C51.5 57.5 53.25 56.5 54.75 54.75C56.25 53 57.5 51.5 58.25 49.5C59 47.5 59.5 45.5 59.75 42.25C60 39.25 60 38.25 60 30C60 21.75 60 20.75 59.75 17.75ZM54.5 42C54.25 45 54 46.5 53.5 47.5C53 49 52.25 50 51.25 51C50.25 52 49.25 52.75 47.75 53.25C46.75 53.75 45 54.25 42.25 54.25C39 54.5 38.25 54.5 30.25 54.5C22.25 54.5 21.25 54.5 18.25 54.25C15.25 54 13.75 53.75 12.75 53.25C11.25 52.75 10.25 52 9.25 51C8.25 50 7.5 49 7 47.5C6.5 46.5 6 44.75 6 42C5.75 38.75 5.75 38 5.75 30C5.75 22 5.75 21 6 18C5.75 15 6.25 13.25 6.5 12.25C7 10.75 7.75 9.75 8.75 8.75C9.75 7.75 10.75 7 12.25 6.5C13.25 6.25 15 5.75 18 5.5C21 5.5 22 5.5 30 5.5C38 5.5 39 5.5 42 5.75C45 6 46.5 6.25 47.5 6.75C49 7.25 50 8 51 9C52 10 52.75 11 53.25 12.5C53.75 13.5 54.25 15.25 54.25 18C54.5 21.25 54.5 22 54.5 30C54.5 38 54.5 39 54.5 42Z" fill="#F5F5F5"/>
<path d="M30 15C21.75 15 15 21.75 15 30C15 38.25 21.75 45 30 45C38.25 45 45 38.25 45 30C45 21.75 38.25 15 30 15ZM30 39.75C24.5 39.75 20.25 35.5 20.25 30C20.25 24.5 24.5 20.25 30 20.25C35.5 20.25 39.75 24.5 39.75 30C39.75 35.5 35.5 39.75 30 39.75Z" fill="#F5F5F5"/>
<path d="M46.25 18.75C48.3211 18.75 50 17.0711 50 15C50 12.9289 48.3211 11.25 46.25 11.25C44.1789 11.25 42.5 12.9289 42.5 15C42.5 17.0711 44.1789 18.75 46.25 18.75Z" fill="#F5F5F5"/>
</svg>
