<svg width="30" height="30" viewBox="0 0 30 30" fill="none" xmlns="http://www.w3.org/2000/svg">
<path d="M29.875 8.875C29.75 7.25 29.5 6.25 29.125 5.25C28.875 4.25 28.375 3.375 27.5 2.5C26.625 1.625 25.875 1.125 24.875 0.75C23.875 0.375 22.875 0.125 21.25 0C19.625 0 19.125 0 15 0C10.875 0 10.375 0 8.875 0.125C7.25 0.125 6.125 0.375 5.125 0.75C4.25 1.125 3.375 1.625 2.5 2.5C1.625 3.375 1.125 4.25 0.75 5.125C0.375 6.125 0.125 7.25 0.125 8.875C0 10.375 0 10.875 0 15C0 19.125 0 19.625 0.125 21.125C0.25 22.75 0.5 23.75 0.875 24.75C1.125 25.75 1.625 26.625 2.5 27.5C3.375 28.375 4.125 28.875 5.125 29.25C6.125 29.625 7.125 29.875 8.75 30C10.375 30 10.875 30 15 30C19.125 30 19.625 30 21.125 29.875C22.75 29.75 23.75 29.5 24.75 29.125C25.75 28.75 26.625 28.25 27.375 27.375C28.125 26.5 28.75 25.75 29.125 24.75C29.5 23.75 29.75 22.75 29.875 21.125C30 19.625 30 19.125 30 15C30 10.875 30 10.375 29.875 8.875ZM27.25 21C27.125 22.5 27 23.25 26.75 23.75C26.5 24.5 26.125 25 25.625 25.5C25.125 26 24.625 26.375 23.875 26.625C23.375 26.875 22.5 27.125 21.125 27.125C19.5 27.25 19.125 27.25 15.125 27.25C11.125 27.25 10.625 27.25 9.125 27.125C7.625 27 6.875 26.875 6.375 26.625C5.625 26.375 5.125 26 4.625 25.5C4.125 25 3.75 24.5 3.5 23.75C3.25 23.25 3 22.375 3 21C2.875 19.375 2.875 19 2.875 15C2.875 11 2.875 10.5 3 9C2.875 7.5 3.125 6.625 3.25 6.125C3.5 5.375 3.875 4.875 4.375 4.375C4.875 3.875 5.375 3.5 6.125 3.25C6.625 3.125 7.5 2.875 9 2.75C10.5 2.75 11 2.75 15 2.75C19 2.75 19.5 2.75 21 2.875C22.5 3 23.25 3.125 23.75 3.375C24.5 3.625 25 4 25.5 4.5C26 5 26.375 5.5 26.625 6.25C26.875 6.75 27.125 7.625 27.125 9C27.25 10.625 27.25 11 27.25 15C27.25 19 27.25 19.5 27.25 21Z" fill="#241700"/>
<path d="M15 7.5C10.875 7.5 7.5 10.875 7.5 15C7.5 19.125 10.875 22.5 15 22.5C19.125 22.5 22.5 19.125 22.5 15C22.5 10.875 19.125 7.5 15 7.5ZM15 19.875C12.25 19.875 10.125 17.75 10.125 15C10.125 12.25 12.25 10.125 15 10.125C17.75 10.125 19.875 12.25 19.875 15C19.875 17.75 17.75 19.875 15 19.875Z" fill="#241700"/>
<path d="M23.125 9.375C24.1605 9.375 25 8.53553 25 7.5C25 6.46447 24.1605 5.625 23.125 5.625C22.0895 5.625 21.25 6.46447 21.25 7.5C21.25 8.53553 22.0895 9.375 23.125 9.375Z" fill="#241700"/>
</svg>
