<svg width="130" height="98" viewBox="0 0 105 72" fill="none" xmlns="http://www.w3.org/2000/svg">
<path d="M104.522 35.8741C101.75 41.9029 99.1348 48.4453 97.3975 54.4535C96.4781 57.6334 95.9389 60.5074 96.0449 63.7626C96.0463 63.8131 96.0313 63.8626 96.0023 63.904C95.9733 63.9455 95.9318 63.9767 95.8836 63.9932C94.2247 64.5563 92.5311 65.0014 90.803 65.3286C83.9105 66.6298 76.962 67.8321 69.9574 68.9354C65.2861 69.672 60.5073 70.3317 55.621 70.9146C53.9343 71.1154 52.3168 71.1679 50.7684 71.0721C49.5227 70.9929 48.3329 70.8795 47.1993 70.7319C35.9873 69.2603 24.7823 67.444 13.5841 65.283C11.8767 64.952 10.3191 64.5205 8.71774 63.9909C8.66835 63.9742 8.62573 63.9423 8.59625 63.8999C8.56676 63.8575 8.55199 63.807 8.55415 63.7558C8.6371 61.4023 8.38134 59.1903 7.80069 56.8938C6.99271 53.6964 5.97888 50.464 4.75922 47.1966C3.22773 43.0907 1.65015 39.28 0.0264977 35.7645C-0.00883257 35.6854 -0.00883257 35.607 0.0264977 35.5294C1.9881 31.2515 3.76459 26.9074 5.35599 22.4971C6.49885 19.3301 7.38441 16.3268 8.01267 13.487C8.36444 11.8967 8.54416 10.4281 8.55184 9.08126C8.55492 8.56078 8.56183 8.04183 8.57258 7.52441C8.57565 7.42244 8.62558 7.35472 8.72235 7.32124C10.4397 6.72316 12.2047 6.25215 14.0173 5.90821C25.6993 3.68936 37.1455 1.86086 48.356 0.422722C49.4781 0.278908 50.5864 0.224122 51.7131 0.144225C52.1755 0.110744 52.6256 0.109983 53.0634 0.141942C54.707 0.260646 56.2784 0.420439 57.7777 0.621323C67.9651 1.9849 78.5649 3.69393 89.5772 5.74842C91.7277 6.14866 93.8199 6.66076 95.8537 7.28472C95.912 7.30322 95.9626 7.34007 95.9976 7.38959C96.0326 7.4391 96.05 7.49852 96.0472 7.55865C95.9044 10.9371 96.6094 14.3316 97.6118 17.5777C99.4628 23.586 101.768 29.5478 104.529 35.4632C104.59 35.5941 104.588 35.731 104.522 35.8741ZM23.8399 65.0866C29.7846 66.085 35.1525 66.9456 39.9435 67.6685C43.836 68.2559 47.6179 68.7254 51.2892 69.0769C51.6932 69.115 52.1156 69.1172 52.5565 69.0838C54.6978 68.9148 56.8445 68.6911 58.9965 68.4126C67.7216 67.2865 77.2669 65.7593 87.6325 63.8311C89.1901 63.542 90.7277 63.2391 92.2454 62.9226C92.8522 62.7963 93.4197 62.6311 93.9482 62.4272C94.0465 62.3892 94.0956 62.3184 94.0956 62.2149C94.0956 59.9215 94.5849 57.1008 95.5634 53.7527C97.356 47.6143 99.8099 41.5148 102.391 35.7211C102.421 35.6481 102.421 35.5758 102.388 35.5043C99.7861 29.8932 97.5895 24.1703 95.7984 18.3356C94.8744 15.3292 94.1417 12.1881 94.091 9.05614C94.0895 8.98005 94.0526 8.93135 93.9804 8.91005C92.9359 8.60416 92.1371 8.39566 91.5841 8.28457C85.7715 7.12645 79.8875 6.06876 73.932 5.11152C67.7968 4.12537 62.1985 3.30662 57.1371 2.65527C56.1632 2.53048 55.1816 2.41862 54.1924 2.3197C53.3875 2.24056 52.6018 2.21698 51.8353 2.24894C50.7416 2.29611 49.9543 2.34938 49.4735 2.40873C43.0849 3.19857 37.2193 4.02797 31.8767 4.89694C28.6663 5.41894 24.164 6.18671 18.3698 7.20026C15.9343 7.62713 13.7177 8.1088 11.3836 8.64981C11.1271 8.70916 10.8721 8.79439 10.6187 8.90548C10.5851 8.91959 10.5564 8.94326 10.536 8.97363C10.5155 9.00401 10.5042 9.03979 10.5035 9.07669C10.4136 13.3866 8.95968 18.1393 7.47581 22.3281C5.92435 26.7065 4.16551 31.1183 2.19931 35.5636C2.18478 35.5966 2.17728 35.6321 2.17728 35.6679C2.17728 35.7036 2.18478 35.7389 2.19931 35.7714C4.54954 40.9274 6.59486 46.1929 8.33526 51.5681C8.90208 53.3182 9.42742 55.2578 9.91129 57.3869C10.2984 59.0944 10.4935 60.7182 10.4965 62.2583C10.4965 62.3344 10.5319 62.3854 10.6025 62.4112C11.1955 62.6258 11.7677 62.7917 12.3191 62.9089C16.1809 63.7185 20.0211 64.4444 23.8399 65.0866Z" fill="white"/>
<path d="M99.2154 35.8033C96.955 40.8208 94.9873 45.8338 93.326 51.0339C92.6532 53.1371 92.1232 55.1992 91.7361 57.2202C91.6501 57.6722 91.548 58.6972 91.4297 60.2951C91.4235 60.3743 91.3828 60.4268 91.3076 60.4526C90.9159 60.5881 90.5188 60.6946 90.1163 60.7722C88.8053 61.021 87.5149 61.3155 86.1924 61.5598C75.836 63.4636 66.1025 65.0045 56.9919 66.1824C56.0871 66.2996 55.147 66.4167 54.1716 66.5339C52.4712 66.7417 50.7891 66.5339 49.1002 66.3467C45.2123 65.9206 40.9788 65.3423 36.3997 64.6118C31.369 63.8098 26.7622 63.0466 22.5795 62.3222C19.4043 61.7713 16.3636 61.1725 13.4573 60.5257C13.2546 60.4815 13.1509 60.3552 13.1463 60.1467C13.1386 59.675 13.0987 59.2123 13.0265 58.7588C12.6363 56.2858 12.0472 53.7877 11.2592 51.2645C9.66163 46.1572 7.68237 40.9677 5.32139 35.696C5.2922 35.6306 5.2922 35.5644 5.32139 35.4974C7.86056 29.843 10.1301 23.9946 11.8905 17.9589C12.5894 15.5575 13.018 13.2298 13.1762 10.9759C13.1808 10.9029 13.2185 10.8572 13.2891 10.839C14.4796 10.527 15.7976 10.2333 17.243 9.95784C27.2415 8.0601 37.2845 6.45151 47.3721 5.13207C48.9619 4.92358 50.5334 4.78281 52.0864 4.70976C52.7039 4.68236 53.3206 4.70139 53.9366 4.76683C55.8275 4.96771 57.7277 5.19751 59.6371 5.45622C66.9258 6.44999 74.5503 7.653 82.5103 9.06527C85.5533 9.60401 88.4819 10.1869 91.296 10.8139C91.3821 10.8321 91.4282 10.8854 91.4343 10.9737C91.6578 14.7813 92.7338 18.5045 93.9619 22.1524C95.4535 26.587 97.2046 31.0552 99.2154 35.5568C99.2523 35.639 99.2523 35.7211 99.2154 35.8033Z" fill="white"/>
<path d="M51.3422 24.8438C50.932 26.0377 50.3145 27.0672 49.5265 28.0328C47.4528 30.5712 46.6025 34.2579 49.2362 36.7735C49.7938 37.3054 51.1763 38.0016 50.6002 38.9787C49.9919 40.0082 48.6578 39.8918 47.7108 39.4923C45.8184 38.6948 44.4397 37.3693 43.5749 35.5157C41.7869 31.6807 42.2615 27.3388 44.8583 23.7595C45.3038 23.1462 45.7385 22.58 46.1624 22.0611C47.1993 20.7934 48.1394 19.5059 48.9827 18.1986C49.9458 16.7034 50.1509 15.3589 49.8491 13.6514C49.7684 13.1994 50.0035 12.7862 50.5334 12.9483C53.8099 13.9527 55.3306 17.0778 56.2615 20.1184C56.2669 20.1371 56.2778 20.1538 56.2927 20.1664C56.3077 20.179 56.3261 20.1869 56.3456 20.1891C56.3651 20.1913 56.3848 20.1877 56.4023 20.1788C56.4197 20.1699 56.4341 20.156 56.4435 20.139C56.7177 19.6756 57.5726 18.4908 58.2131 18.4794C58.5772 18.4718 58.7608 18.6628 58.7638 19.0524C58.7853 21.5741 59.3537 23.8782 60.4689 25.9646C60.879 26.7331 61.2577 27.4834 61.6048 28.2154C63.6141 32.4408 60.7707 39.3896 55.4873 39.6201C54.7592 39.6521 53.9297 39.3736 53.8929 38.5449C53.8514 37.6113 55.0818 37.1433 55.6025 36.5429C57.0426 34.8788 57.1025 32.8997 56.1901 30.9228C55.8644 30.2166 55.5757 29.4618 55.3237 28.6583C55.2638 28.4696 55.2001 28.468 55.1325 28.6537C54.6924 29.8407 54.3537 31.1739 54.9366 32.3518C54.983 32.4457 55.0019 32.5507 54.9913 32.6551C54.9808 32.7595 54.9411 32.8592 54.8767 32.943C54.6394 33.2512 54.2339 33.1896 53.9551 32.9818C51.9274 31.4889 51.6624 29.9526 51.7016 27.6287C51.7185 26.6137 51.6747 25.693 51.5703 24.8666C51.5288 24.5272 51.4528 24.5196 51.3422 24.8438Z" fill="#FAA607"/>
<path d="M56.3007 26.0901C56.0227 25.9014 55.7677 25.9143 55.5357 26.1289C54.2938 27.2794 53.7178 28.713 53.4436 30.3497C53.3959 30.6374 53.3214 30.6442 53.2201 30.3703C53.0388 29.8863 52.9436 29.3879 52.9343 28.8751C52.9128 27.6743 52.8752 26.5215 52.8214 25.4167C52.75 23.9854 52.197 22.6591 50.674 22.2391C50.4236 22.1706 50.2139 22.2406 50.0449 22.4491C49.9847 22.5229 49.9503 22.6142 49.947 22.7092C49.9436 22.8043 49.9716 22.8981 50.0265 22.9764C50.2938 23.3569 50.3683 23.77 50.25 24.2159C49.9989 25.1542 49.5726 25.9919 48.985 26.7544C47.6486 28.4893 46.6233 30.2539 46.4205 32.37C46.1924 34.7464 47.2661 36.9515 49.1993 38.3257C49.4973 38.5373 49.4643 38.6233 49.1002 38.5837C46.7546 38.3303 44.8168 36.0087 44.2039 33.9246C43.3806 31.1183 43.6079 28.4665 44.886 25.9691C45.4159 24.9327 46.4413 23.6042 47.2892 22.5609C48.1955 21.4485 49.0688 20.2455 49.909 18.9519C50.75 17.6576 51.2569 16.1989 51.2293 14.6512C51.2287 14.6379 51.2318 14.6248 51.2384 14.6133C51.245 14.6017 51.2547 14.5922 51.2665 14.5856C51.2783 14.579 51.2918 14.5757 51.3056 14.576C51.3193 14.5763 51.3327 14.5802 51.3445 14.5872C54.0496 16.2833 54.992 19.6048 55.6325 22.497C55.6847 22.7329 55.783 22.9597 55.9274 23.1773C55.9872 23.2682 56.0751 23.3374 56.1778 23.3745C56.2804 23.4115 56.3923 23.4144 56.4966 23.3827C56.8284 23.28 56.9482 22.9947 56.9228 22.6774C56.8691 22.026 57.0495 21.4059 57.4643 20.8169C57.5872 20.6434 57.6602 20.6617 57.6832 20.8717C57.9827 23.6179 58.9804 25.7842 60.2546 28.156C62.0956 31.5779 60.6002 36.374 57.0588 38.0632C56.5488 38.3052 56.0304 38.4254 55.5035 38.4239C55.2976 38.4239 55.2761 38.3615 55.439 38.2367C55.7592 37.9902 56.1164 37.7824 56.3767 37.4834C58.1325 35.4715 58.4643 33.2078 57.3721 30.6922C57.0526 29.9571 56.77 29.2023 56.5242 28.4277C56.3353 27.8319 56.4251 27.1744 56.5104 26.5581C56.5229 26.4682 56.5099 26.3768 56.4728 26.2941C56.4357 26.2114 56.3761 26.1408 56.3007 26.0901Z" fill="#FAA607"/>
<path d="M43.8214 44.2245C43.7851 44.2399 43.7538 44.2651 43.7313 44.2974C43.7089 44.3296 43.696 44.3675 43.6944 44.4066C43.6927 44.4458 43.7022 44.4846 43.7218 44.5186C43.7415 44.5526 43.7704 44.5804 43.8053 44.5988C44.1947 44.8066 44.8353 45.0508 44.962 45.4845C45.2938 46.6351 43.7776 46.8793 42.9551 46.6556C42.8491 46.6267 42.8053 46.559 42.8237 46.4524L42.8652 46.2287C42.8693 46.2047 42.8786 46.1817 42.8924 46.1615C42.9062 46.1412 42.9243 46.1241 42.9454 46.1111C42.9665 46.0982 42.9901 46.0898 43.0148 46.0865C43.0395 46.0831 43.0647 46.0849 43.0887 46.0918C43.3698 46.1724 43.6294 46.1823 43.8675 46.1214C43.9232 46.1075 43.9731 46.0765 44.0099 46.0328C44.0467 45.9891 44.0686 45.935 44.0724 45.8782C44.0763 45.8214 44.0618 45.7649 44.0312 45.7167C44.0006 45.6686 43.9554 45.6312 43.9021 45.6101C43.409 45.4138 42.7408 45.0714 42.8145 44.4413C42.9205 43.5625 44.0634 43.4255 44.7177 43.7017C44.8545 43.7611 44.8875 43.8554 44.8168 43.9848L44.7638 44.0806C44.6932 44.2085 44.5887 44.248 44.4505 44.1994C44.2462 44.1248 44.0365 44.1332 43.8214 44.2245Z" fill="black"/>
<path d="M51.5679 45.5781C51.5173 45.5188 51.4627 45.4624 51.4044 45.4092C51.3661 45.3745 51.3393 45.3293 51.3275 45.2793C51.3158 45.2293 51.3196 45.1769 51.3385 45.1289C51.3574 45.0809 51.3905 45.0395 51.4335 45.0101C51.4764 44.9807 51.5273 44.9647 51.5795 44.964L52.3237 44.9572C52.402 44.9557 52.4412 44.9937 52.4412 45.0713V46.2013C52.4413 46.2372 52.4325 46.2726 52.4156 46.3045C52.3987 46.3363 52.3743 46.3635 52.3444 46.3839C50.8606 47.3861 49.3053 46.2173 49.8905 44.5143C50.2085 43.5875 51.1394 43.3729 52.0795 43.7291C52.1793 43.7671 52.2116 43.8356 52.1762 43.9345L52.0679 44.2336C52.0342 44.3325 51.9681 44.3621 51.8698 44.3226C51.604 44.2115 51.3537 44.1674 51.1186 44.1902C51.0783 44.1944 51.0394 44.2073 51.0048 44.2278C50.9701 44.2483 50.9406 44.276 50.9182 44.3089C50.5864 44.7974 50.561 45.3308 50.8421 45.9091C50.8743 45.9757 50.9236 46.0327 50.9851 46.0743C51.0466 46.116 51.1181 46.1409 51.1924 46.1465C51.4934 46.1663 51.6486 46.0674 51.6578 45.8497C51.6609 45.7417 51.6309 45.6512 51.5679 45.5781Z" fill="black"/>
<path d="M55.7136 45.4589C55.7025 45.8075 55.5522 46.1374 55.2956 46.3761C55.039 46.6148 54.6972 46.7428 54.3454 46.7319L54.0874 46.7238C53.7356 46.7129 53.4026 46.5639 53.1616 46.3097C52.9207 46.0555 52.7915 45.7168 52.8026 45.3683L52.8187 44.8618C52.8297 44.5132 52.9801 44.1833 53.2367 43.9446C53.4933 43.7058 53.8351 43.5779 54.1869 43.5888L54.4448 43.5969C54.7966 43.6078 55.1296 43.7568 55.3706 44.011C55.6115 44.2652 55.7407 44.6039 55.7296 44.9524L55.7136 45.4589Z" fill="black"/>
<path d="M35.6048 44.8796C35.5511 44.9694 35.5687 45.0417 35.6578 45.0965C36.5818 45.6717 35.9389 46.5392 35.1233 46.6328C34.6624 46.686 34.1847 46.6959 33.6901 46.6625C33.5949 46.6548 33.5472 46.6046 33.5472 46.5118V43.8021C33.5472 43.6926 33.6025 43.6393 33.7131 43.6424C34.25 43.6515 35.1279 43.5259 35.5518 43.898C35.8314 44.1476 35.8491 44.4748 35.6048 44.8796Z" fill="black"/>
<path d="M38.6163 45.795C38.7638 45.9015 38.9228 45.9769 39.0933 46.021C39.1268 46.0297 39.157 46.0477 39.1803 46.0728C39.2036 46.0979 39.219 46.1291 39.2246 46.1625C39.2507 46.3102 39.2454 46.4677 39.2085 46.6351C39.2019 46.6645 39.1857 46.691 39.1624 46.7104C39.1391 46.7298 39.1099 46.7411 39.0795 46.7424C38.5034 46.7652 38.101 46.4768 37.8721 45.8772C37.8245 45.7509 37.7338 45.6961 37.6002 45.7128C37.5111 45.725 37.4666 45.7752 37.4666 45.8635L37.4643 46.4159C37.4643 46.5879 37.3775 46.6739 37.2039 46.6739L36.7638 46.6716C36.7061 46.671 36.6511 46.6479 36.6105 46.6073C36.57 46.5667 36.5472 46.5119 36.5472 46.4547L36.5426 43.8889C36.5426 43.8567 36.5491 43.8249 36.5616 43.7952C36.5742 43.7656 36.5926 43.7387 36.6158 43.7162C36.6389 43.6936 36.6664 43.6759 36.6966 43.664C36.7267 43.6521 36.759 43.6463 36.7915 43.6469C37.5656 43.6606 39.2661 43.4278 39.0749 44.7952C39.0311 45.117 38.7776 45.3248 38.5864 45.5667C38.5157 45.6535 38.5257 45.7296 38.6163 45.795Z" fill="black"/>
<path d="M41.3099 46.167L40.6279 46.1579C40.5833 46.158 40.5398 46.1708 40.5026 46.1947C40.4654 46.2186 40.4361 46.2526 40.4182 46.2926L40.2823 46.6053C40.2638 46.6495 40.23 46.6715 40.1809 46.6715L39.5519 46.6738C39.4397 46.6738 39.4013 46.6206 39.4366 46.514L40.3145 43.7998C40.3468 43.6994 40.4159 43.6492 40.5219 43.6492L41.3767 43.6446C41.4797 43.6446 41.5472 43.6933 41.5795 43.7907L42.4735 46.4844C42.5058 46.5802 42.472 46.6388 42.3721 46.6601C41.8729 46.7712 41.5833 46.6586 41.5035 46.3223C41.4804 46.2203 41.4159 46.1686 41.3099 46.167Z" fill="black"/>
<path d="M46.2569 46.3338C46.1463 46.6884 45.8444 46.7873 45.3514 46.6306C45.337 46.6262 45.3237 46.619 45.3122 46.6094C45.3007 46.5998 45.2912 46.588 45.2843 46.5746C45.2775 46.5612 45.2733 46.5465 45.2722 46.5314C45.271 46.5164 45.2729 46.5012 45.2776 46.4867L46.1716 43.8113C46.2085 43.7018 46.2845 43.647 46.3997 43.647H47.2039C47.3268 43.647 47.4067 43.7048 47.4435 43.8205L48.3214 46.4867C48.3283 46.508 48.3302 46.5306 48.3267 46.5527C48.3233 46.5748 48.3147 46.5957 48.3017 46.6138C48.2886 46.6318 48.2715 46.6465 48.2517 46.6565C48.2319 46.6666 48.21 46.6718 48.1878 46.6716H47.7039C47.5764 46.6716 47.4904 46.613 47.4458 46.4959C47.3183 46.1565 46.9727 46.0553 46.409 46.1923C46.3322 46.2105 46.2815 46.2577 46.2569 46.3338Z" fill="black"/>
<path d="M57.0288 45.731C57.2101 46.0658 57.3721 46.199 57.515 46.1305C57.73 46.0286 57.8406 45.865 57.8468 45.6397C57.8606 45.0949 57.8621 44.474 57.8514 43.777C57.8514 43.6918 57.8936 43.6492 57.9781 43.6492L58.5956 43.6469C58.6129 43.6469 58.6301 43.6503 58.6461 43.6569C58.662 43.6635 58.6765 43.6731 58.6885 43.6853C58.7006 43.6974 58.71 43.7118 58.7162 43.7276C58.7224 43.7433 58.7253 43.7601 58.7246 43.777C58.7108 44.2883 58.7131 44.8309 58.7316 45.4046C58.7523 46.1351 58.3882 46.6693 57.6233 46.7423C55.7039 46.9226 56.1578 44.9207 56.1256 43.8204C56.1225 43.7032 56.1801 43.6446 56.2984 43.6446L56.879 43.6492C56.9543 43.6492 56.9919 43.6872 56.9919 43.7633V45.5918C56.992 45.6397 57.0047 45.6876 57.0288 45.731Z" fill="black"/>
<path d="M61.3237 45.7584C61.4604 45.8939 61.6179 45.9753 61.7961 46.0027C61.8373 46.0097 61.8747 46.0307 61.9017 46.062C61.9287 46.0934 61.9435 46.133 61.9435 46.1739L61.9505 46.6053C61.9511 46.6385 61.9387 46.6706 61.9159 46.6949C61.8932 46.7191 61.8617 46.7337 61.8283 46.7355C61.1233 46.7765 60.9274 46.4478 60.6141 45.957C60.3591 45.5583 60.2078 45.5941 60.1601 46.0643C60.1448 46.2119 60.1455 46.3695 60.1624 46.5369C60.1644 46.5542 60.1626 46.5717 60.1573 46.5882C60.1519 46.6048 60.143 46.6201 60.1313 46.633C60.1195 46.646 60.1051 46.6563 60.0891 46.6633C60.073 46.6703 60.0556 46.6739 60.038 46.6738L59.4689 46.6693C59.4231 46.6693 59.3791 46.6515 59.3467 46.6198C59.3143 46.5881 59.2961 46.5451 59.2961 46.5003V43.7656C59.2961 43.7357 59.3082 43.707 59.3297 43.6857C59.3512 43.6643 59.3805 43.652 59.4113 43.6514C60.1924 43.64 62.0772 43.414 61.773 44.8613C61.7062 45.1832 61.4919 45.2882 61.3076 45.5256C61.2431 45.6078 61.2485 45.6854 61.3237 45.7584Z" fill="black"/>
<path d="M63.1716 45.4823L63.0956 46.5917C63.0925 46.645 63.0633 46.6716 63.008 46.6716L62.4067 46.6694C62.3683 46.6694 62.3491 46.6511 62.3491 46.6146V43.8182C62.3491 43.704 62.4067 43.647 62.5219 43.647H63.2016C63.3061 43.647 63.3744 43.6972 63.4067 43.7976L63.7385 44.8546C63.8613 45.2472 63.9827 45.2472 64.1025 44.8546L64.4205 43.8159C64.4558 43.7033 64.5326 43.647 64.6509 43.647H65.2868C65.4021 43.647 65.4597 43.704 65.4597 43.8182L65.4574 46.5598C65.4574 46.6359 65.419 46.6739 65.3421 46.6739L64.8329 46.6716C64.7362 46.6701 64.6924 46.6222 64.7016 46.5278C64.7246 46.2417 64.7254 45.9663 64.7039 45.7015C64.6716 45.2906 64.5872 45.2799 64.4504 45.6695L64.2799 46.1557C64.2523 46.2333 64.197 46.2714 64.114 46.2699L63.7016 46.2676C63.6079 46.2676 63.5511 46.2212 63.5311 46.1283C63.4819 45.8864 63.3967 45.6627 63.2753 45.4572C63.2139 45.3522 63.1793 45.3606 63.1716 45.4823Z" fill="black"/>
<path d="M67.0933 45.9708C67.4282 46.0317 67.7454 46.0538 68.0449 46.037C68.177 46.0294 68.2515 46.088 68.2684 46.2128C68.2792 46.2889 68.2861 46.365 68.2892 46.4411C68.2901 46.471 68.2849 46.5009 68.274 46.5288C68.2631 46.5567 68.2466 46.5822 68.2255 46.6037C68.2045 46.6252 68.1793 46.6423 68.1514 46.654C68.1236 46.6656 68.0936 46.6717 68.0634 46.6716H66.2661C66.2203 46.6716 66.1763 46.6536 66.1439 46.6215C66.1115 46.5894 66.0933 46.5458 66.0933 46.5004V43.8182C66.0933 43.704 66.1509 43.647 66.2661 43.647H67.9942C68.1863 43.647 68.2823 43.7421 68.2823 43.9323L68.28 44.0465C68.28 44.1215 68.2499 44.1935 68.1963 44.2466C68.1427 44.2997 68.07 44.3295 67.9942 44.3295L67.1325 44.3318C67.0188 44.3333 66.962 44.3896 66.962 44.5007V44.6765C66.9635 44.7861 67.0204 44.8416 67.1325 44.8431L67.6118 44.85C67.7362 44.85 67.8015 44.9116 67.8076 45.0349L67.8237 45.3522C67.8314 45.4694 67.7754 45.5287 67.6555 45.5303H67.197C67.1636 45.5309 67.1309 45.5396 67.1016 45.5555C67.0723 45.5714 67.0474 45.5941 67.0288 45.6216C66.9935 45.6748 66.972 45.7319 66.9643 45.7928C66.9489 45.8932 66.9919 45.9526 67.0933 45.9708Z" fill="black"/>
<path d="M70.1855 44.4893L70.1808 46.5233C70.1808 46.5626 70.1651 46.6004 70.137 46.6282C70.1089 46.656 70.0708 46.6716 70.0311 46.6716H69.4712C69.4515 46.6716 69.432 46.6678 69.4138 46.6603C69.3957 46.6529 69.3792 46.642 69.3653 46.6282C69.3514 46.6144 69.3403 46.598 69.3328 46.58C69.3253 46.562 69.3214 46.5427 69.3214 46.5233L69.3168 44.4847C69.3168 44.4462 69.3017 44.4091 69.2746 44.3814C69.2475 44.3537 69.2105 44.3376 69.1716 44.3364L68.6647 44.3181C68.6254 44.3169 68.5881 44.3004 68.561 44.2722C68.5338 44.2441 68.5189 44.2064 68.5196 44.1674L68.5242 43.7931C68.5248 43.7541 68.5408 43.717 68.5688 43.6896C68.5969 43.6623 68.6346 43.647 68.6739 43.647H70.849C70.8691 43.647 70.889 43.6509 70.9074 43.6587C70.9259 43.6664 70.9426 43.6778 70.9566 43.692C70.9706 43.7063 70.9815 43.7232 70.9888 43.7417C70.996 43.7603 70.9994 43.7801 70.9988 43.7999L70.9873 44.1766C70.9862 44.214 70.9708 44.2496 70.9443 44.2762C70.9178 44.3029 70.8822 44.3187 70.8444 44.3204L70.3283 44.3409C70.2898 44.3427 70.2535 44.3591 70.2268 44.3867C70.2002 44.4144 70.1854 44.4511 70.1855 44.4893Z" fill="black"/>
<path d="M53.7062 45.1532C53.7015 45.6941 53.9514 46.1347 54.2644 46.1374C54.5774 46.1401 54.8351 45.7039 54.8398 45.163C54.8446 44.6222 54.5947 44.1816 54.2817 44.1789C53.9686 44.1762 53.711 44.6124 53.7062 45.1532Z" fill="white"/>
<path d="M34.4568 44.7844C34.5848 44.9427 34.8012 44.9816 34.9401 44.8713C35.0791 44.761 35.088 44.5433 34.96 44.385C34.8321 44.2268 34.6157 44.1879 34.4767 44.2982C34.3378 44.4085 34.3288 44.6262 34.4568 44.7844Z" fill="white"/>
<path d="M37.4712 44.3839C37.4715 44.3645 37.4757 44.3453 37.4835 44.3274C37.4913 44.3096 37.5026 44.2934 37.5167 44.2799C37.5308 44.2664 37.5475 44.2557 37.5658 44.2486C37.5841 44.2414 37.6036 44.2379 37.6233 44.2382H37.6578C37.7921 44.2402 37.9201 44.2865 38.0139 44.3667C38.1076 44.447 38.1594 44.5547 38.1578 44.6662V44.7072C38.1571 44.7626 38.1432 44.8173 38.117 44.8681C38.0907 44.919 38.0526 44.965 38.0049 45.0034C37.9572 45.0419 37.9007 45.0722 37.8388 45.0925C37.7769 45.1128 37.7107 45.1227 37.644 45.1216H37.6095C37.5898 45.1213 37.5704 45.1172 37.5523 45.1095C37.5343 45.1018 37.5179 45.0906 37.5042 45.0767C37.4905 45.0627 37.4798 45.0462 37.4725 45.0282C37.4653 45.0101 37.4617 44.9908 37.462 44.9714L37.4712 44.3839Z" fill="white"/>
<path d="M60.1717 44.4044C60.1717 44.3633 60.1882 44.324 60.2176 44.2949C60.2469 44.2659 60.2868 44.2496 60.3283 44.2496L60.3698 44.2518C60.509 44.2527 60.6422 44.2972 60.7402 44.3758C60.8383 44.4543 60.8932 44.5604 60.8929 44.6708V44.7072C60.8918 44.8175 60.8356 44.9228 60.7367 45C60.6378 45.0773 60.5042 45.1202 60.3652 45.1194H60.3237C60.2822 45.1194 60.2423 45.1031 60.2129 45.074C60.1836 45.045 60.1671 45.0056 60.1671 44.9645L60.1717 44.4044Z" fill="white"/>
<path d="M40.7753 45.5325C40.7568 45.5325 40.7389 45.5254 40.7256 45.5126C40.7123 45.4999 40.7045 45.4825 40.7039 45.4642V45.4209C40.7027 45.2133 40.7273 45.0139 40.7722 44.8666C40.8172 44.7193 40.8788 44.6361 40.9435 44.6354H40.9481C40.9802 44.635 41.0121 44.6549 41.042 44.694C41.0719 44.7331 41.0991 44.7905 41.1222 44.863C41.1454 44.9355 41.1638 45.0217 41.1767 45.1167C41.1895 45.2116 41.1964 45.3135 41.197 45.4164V45.4596C41.1973 45.4691 41.1957 45.4785 41.1922 45.4873C41.1888 45.4962 41.1836 45.5042 41.1769 45.511C41.1702 45.5178 41.1623 45.5232 41.1534 45.5269C41.1446 45.5306 41.1351 45.5325 41.1256 45.5325H40.7753Z" fill="white"/>
<path d="M46.6071 45.5235C46.5898 45.5229 46.5734 45.5157 46.5614 45.5033C46.5493 45.491 46.5426 45.4746 46.5426 45.4574V45.4256C46.5446 45.3233 46.5526 45.2222 46.5662 45.128C46.5798 45.0338 46.5987 44.9483 46.6218 44.8766C46.645 44.8049 46.6718 44.7483 46.7009 44.71C46.7301 44.6718 46.7608 44.6526 46.7915 44.6537H46.8329C46.8945 44.6557 46.9518 44.739 46.9924 44.8854C47.033 45.0318 47.0535 45.2293 47.0495 45.4347V45.4665C47.0495 45.4754 47.0477 45.4842 47.0442 45.4923C47.0407 45.5005 47.0356 45.5079 47.0291 45.5141C47.0227 45.5202 47.015 45.525 47.0067 45.5282C46.9983 45.5314 46.9894 45.5329 46.9804 45.5326L46.6071 45.5235Z" fill="white"/>
<path d="M35.0772 45.4936C35.0968 45.4995 35.115 45.5093 35.1308 45.5223C35.1466 45.5354 35.1596 45.5514 35.169 45.5694C35.1785 45.5875 35.1842 45.6072 35.1858 45.6275C35.1874 45.6477 35.185 45.6681 35.1786 45.6874L35.1532 45.7627C35.1146 45.8838 35.0419 45.9887 34.9512 46.0546C34.8604 46.1205 34.7591 46.1418 34.6693 46.114L34.6002 46.0912C34.5556 46.0775 34.5151 46.052 34.4812 46.0162C34.4473 45.9805 34.4205 45.9351 34.4026 45.8828C34.3846 45.8304 34.3757 45.7721 34.3764 45.7112C34.3771 45.6503 34.3874 45.5879 34.4067 45.5278L34.432 45.4525C34.438 45.4333 34.4478 45.4155 34.4608 45.4001C34.4738 45.3847 34.4898 45.3719 34.5078 45.3626C34.5257 45.3533 34.5454 45.3476 34.5656 45.3458C34.5858 45.344 34.6062 45.3461 34.6256 45.3521L35.0772 45.4936Z" fill="white"/>
<path d="M38.4965 56.4213C39.3398 56.3345 39.3514 55.5333 39.1993 54.8759C39.1862 54.8224 39.1625 54.772 39.1297 54.7277C39.0969 54.6834 39.0555 54.6461 39.008 54.6179L38.5426 54.3463C38.4658 54.3006 38.4143 54.2352 38.3882 54.1499C38.2615 53.7413 38.2154 52.8259 38.9044 52.8305C39.6325 52.8366 40.3368 52.8373 41.0173 52.8328C41.409 52.8297 41.6056 53.023 41.6071 53.4126C41.6133 54.4338 41.614 55.4526 41.6094 56.4692C41.6079 56.8269 41.4612 57.1008 41.1693 57.291C39.6471 58.2894 38.0741 58.5504 36.4504 58.074C34.0633 57.3709 33.4251 55.1658 33.5541 52.9287C33.6993 50.4222 35.4136 48.4065 38.0979 48.596C38.8629 48.6508 39.6448 48.7938 40.4435 49.0251C40.8168 49.1332 40.9443 49.3706 40.826 49.7374C40.7431 49.993 40.6294 50.2571 40.485 50.5295C40.3176 50.843 40.0626 50.9472 39.72 50.8422C39.3268 50.7205 38.9113 50.6147 38.4735 50.5249C35.9942 50.0159 36.114 53.3441 36.3421 54.7275C36.5334 55.8871 37.2292 56.5514 38.4965 56.4213Z" fill="black"/>
<path d="M46.8444 55.1498C46.22 54.974 45.9043 55.4078 45.9228 55.9556C45.9427 56.5081 45.942 57.0308 45.9205 57.5239C45.8836 58.3822 44.4643 58.1631 43.8951 58.1197C43.7284 58.107 43.5727 58.0323 43.4591 57.9104C43.3454 57.7885 43.2823 57.6285 43.2822 57.4622L43.2845 49.3539C43.2845 49.2071 43.3427 49.0662 43.4466 48.9616C43.5505 48.857 43.6917 48.797 43.8398 48.7946C45.0042 48.7702 46.1609 48.7725 47.3099 48.8014C48.9113 48.8425 50.7223 49.6461 50.9159 51.3787C51.0495 52.5612 50.6555 53.4994 49.7338 54.1933C49.2477 54.5609 49.1601 55.1293 49.7131 55.5265C50.0464 55.7669 50.4358 55.9244 50.8813 55.999C51.0113 56.0206 51.1293 56.0875 51.2145 56.1877C51.2997 56.288 51.3466 56.4153 51.3467 56.5469V57.7385C51.3471 57.8171 51.3314 57.8949 51.3006 57.9673C51.2698 58.0398 51.2245 58.1052 51.1674 58.1599C51.1104 58.2145 51.0427 58.2571 50.9686 58.2851C50.8945 58.3131 50.8154 58.3259 50.7361 58.3229C49.2868 58.2658 47.8951 57.4577 47.4136 56.0629C47.3229 55.8073 47.2162 55.5683 47.0933 55.3461C47.0386 55.2496 46.9491 55.179 46.8444 55.1498Z" fill="black"/>
<path d="M54.568 48.7786H53.25C52.8683 48.7786 52.5588 49.0852 52.5588 49.4635V57.4486C52.5588 57.8268 52.8683 58.1334 53.25 58.1334H54.568C54.9498 58.1334 55.2592 57.8268 55.2592 57.4486V49.4635C55.2592 49.0852 54.9498 48.7786 54.568 48.7786Z" fill="black"/>
<path d="M63.4435 56.5377L63.4481 57.6357C63.4484 57.7025 63.4354 57.7686 63.4099 57.8303C63.3843 57.8921 63.3467 57.9482 63.2991 57.9955C63.2516 58.0428 63.1951 58.0804 63.1329 58.106C63.0707 58.1316 63.004 58.1448 62.9366 58.1448L57.6763 58.1356C57.6091 58.1356 57.5426 58.1225 57.4805 58.0971C57.4184 58.0716 57.3621 58.0343 57.3146 57.9872C57.2671 57.9401 57.2294 57.8843 57.2037 57.8228C57.178 57.7613 57.1647 57.6954 57.1647 57.6289V49.2922C57.1647 49.1578 57.2186 49.0289 57.3146 48.9339C57.4105 48.8388 57.5406 48.7854 57.6763 48.7854L59.2408 48.7831C59.3764 48.7831 59.5065 48.8365 59.6025 48.9316C59.6984 49.0266 59.7523 49.1555 59.7523 49.2899L59.7638 55.5242C59.7644 55.6578 59.8183 55.7857 59.9136 55.8802C60.009 55.9747 60.1382 56.028 60.273 56.0286L62.932 56.0332C63.0673 56.0332 63.197 56.0863 63.2929 56.1808C63.3888 56.2754 63.4429 56.4037 63.4435 56.5377Z" fill="black"/>
<path d="M67.4113 55.6589C67.4398 55.765 67.5029 55.8589 67.5908 55.9258C67.6788 55.9927 67.7866 56.0288 67.8974 56.0287L70.2707 56.031C70.75 56.0325 70.9896 56.2707 70.9896 56.7455V57.4006C70.9896 57.8952 70.74 58.1425 70.2408 58.1425L65.3421 58.138C65.1747 58.138 65.0141 58.0721 64.8957 57.9548C64.7773 57.8375 64.7108 57.6784 64.7108 57.5125V49.3174C64.7108 49.1785 64.7661 49.0453 64.8645 48.9469C64.963 48.8485 65.0966 48.7929 65.2362 48.7923L66.7569 48.7809C66.8294 48.7803 66.9013 48.794 66.9684 48.8212C67.0355 48.8484 67.0964 48.8886 67.1477 48.9393C67.1989 48.9901 67.2395 49.0505 67.2669 49.117C67.2944 49.1834 67.3082 49.2547 67.3076 49.3265C67.2876 51.3079 67.2922 53.2163 67.3214 55.0517C67.3245 55.2449 67.3544 55.4473 67.4113 55.6589Z" fill="black"/>
<path d="M45.9435 51.1709C45.9432 51.1035 45.9564 51.0366 45.9821 50.9742C46.0079 50.9118 46.0458 50.855 46.0938 50.8071C46.1417 50.7592 46.1987 50.7211 46.2615 50.695C46.3242 50.6689 46.3916 50.6553 46.4597 50.655H46.5979C47.0126 50.6536 47.4107 50.7896 47.705 51.0331C47.9992 51.2767 48.1654 51.6079 48.1671 51.9539V52.027C48.1679 52.1986 48.1282 52.3687 48.0502 52.5275C47.9723 52.6864 47.8576 52.8309 47.7127 52.9528C47.5678 53.0747 47.3956 53.1716 47.2059 53.238C47.0162 53.3043 46.8127 53.3389 46.6071 53.3396H46.4689C46.4008 53.3399 46.3333 53.3269 46.2703 53.3014C46.2073 53.2758 46.15 53.2382 46.1016 53.1908C46.0533 53.1433 46.0148 53.0868 45.9885 53.0246C45.9622 52.9624 45.9485 52.8957 45.9482 52.8282L45.9435 51.1709Z" fill="white"/>
</svg>
