<svg width="1440" height="38" viewBox="0 0 1440 38" fill="none" xmlns="http://www.w3.org/2000/svg">
<path d="M0 20.5695C0.1674 20.5684 0.3546 20.5661 0.5886 20.5649C2.1096 20.5537 4.7322 22.3459 9.7542 22.4012C14.7762 22.4576 13.4208 23.1359 13.4208 23.1359L16.1712 23.6866L23.6124 22.9609C23.6124 22.9609 34.1532 25.0736 38.736 25.9912C43.3188 26.9098 46.0314 25.5533 48.78 26.104C49.2534 26.1988 49.5558 26.2598 49.752 26.2993C49.7772 26.3049 49.887 26.3264 50.1552 26.3805C51.5304 26.6559 53.9496 25.8738 55.9296 25.9539C57.9096 26.0341 58.221 26.4132 58.221 26.4132L64.1214 24.7452L77.8698 27.5001L86.1192 29.1534L95.1912 26.2203L111.69 29.5259C111.69 29.5259 111.69 29.5259 115.816 30.352C119.941 31.1781 135.772 23.8999 135.772 23.8999L141.271 25.0014C141.271 25.0014 141.271 25.0014 145.395 25.8275C149.521 26.6537 153.644 27.4809 157.77 28.307C161.894 29.1331 167.395 30.2357 167.395 30.2357C167.395 30.2357 167.395 30.2358 171.959 30.2008C176.524 30.1658 181.145 32.9917 188.458 33.5064C195.772 34.0221 199.458 35.7105 199.458 35.7105C199.458 35.7105 199.458 35.7105 206.276 34.2264C213.095 32.7423 211.775 35.3279 211.775 35.3279C211.775 35.3279 211.775 35.3279 217.658 32.7062C223.54 30.0845 230.733 27.8646 230.733 27.8646L243.108 30.3441L253.208 29.8543C253.208 29.8543 264.456 33.0583 266.956 32.6092C269.458 32.16 274.518 34.1248 274.518 34.1248C274.518 34.1248 277.956 34.8133 280.017 35.2263C282.08 35.6394 291.427 35.1372 291.427 35.1372L295.553 35.9633L301.052 37.0648L306.934 34.4431C306.934 34.4431 311.441 31.546 313.724 31.528C316.006 31.5099 324.198 30.3012 324.198 30.3012C324.198 30.3012 338.827 31.3316 340.173 30.177C341.519 29.0214 352.681 27.9335 352.681 27.9335L362.993 29.9999C362.993 29.9999 373.468 28.7731 377.725 26.3704C381.98 23.9665 381.163 27.0588 381.163 27.0588L386.386 22.7578L429.205 30.9152C429.205 30.9152 432.889 32.6035 435.391 32.1555C437.893 31.7063 441.99 31.1025 445.151 29.36C448.312 27.6186 453.649 32.0121 458.213 31.9771C462.778 31.941 460.85 26.8049 460.85 26.8049L466.762 25.6142L474.736 24.8366L479.959 23.5083L481.671 20.1485L493.358 22.4903C493.358 22.4903 498.875 22.0727 500.92 24.0049C502.965 25.9381 507.794 25.3829 507.794 25.3829L515.356 26.8985L513.425 30.6883L518.323 35.9452C518.323 35.9452 524.092 27.6005 526.356 29.1026C528.62 30.6048 534.402 29.6669 538.043 31.4445C541.683 33.222 544.658 28.8713 544.658 28.8713L554.974 27.956L556.672 24.6267L570.42 27.3816L577.294 28.7596C577.294 28.7596 577.294 28.7596 585.076 29.8441C592.857 30.9287 589.779 28.0497 589.779 28.0497C589.779 28.0497 591.149 25.3603 595.885 23.5049C600.619 21.6495 600.223 22.4282 600.223 22.4282L613.971 25.1831C613.971 25.1831 618.259 22.7172 622.136 22.5434C626.013 22.3696 626.947 23.5072 630.385 24.1967C633.823 24.8852 667.836 29.5056 667.836 29.5056C667.836 29.5056 673.333 26.1514 678.834 27.254C679.777 27.4436 680.38 27.5644 680.773 27.6423C680.756 27.6389 680.765 27.6411 680.801 27.6479C681.381 27.7642 681.46 27.78 681.349 27.7574C681.424 27.7721 681.487 27.7856 681.583 27.8048C684.333 28.3555 682.681 25.6492 682.681 25.6492C682.681 25.6492 686.119 26.3376 688.867 26.8895C691.618 27.4403 698.492 28.8183 698.492 28.8183L701.242 29.369C701.242 29.369 701.242 29.369 707.429 30.6082L721.447 23.9157C721.447 23.9157 725.571 24.7418 728.321 25.2937C731.072 25.8444 734.834 19.9476 734.834 19.9476L744.458 21.8764L749.518 19.3811C749.518 19.3811 753.338 20.8054 756.392 20.7591C759.447 20.7128 761.063 19.029 761.063 19.029L766.795 18.1915C766.795 18.1915 772.198 16.51 777.01 17.4738C781.821 18.4376 781.85 19.8686 781.85 19.8686C781.85 19.8686 781.85 19.8686 787.608 21.9497C793.366 24.0308 795.857 23.602 795.857 23.602C795.857 23.602 806.846 25.8275 810.376 26.3342C813.906 26.841 816.939 28.3251 820.814 28.1513C824.692 27.9775 825.187 29.9773 827.689 29.5293C830.191 29.0801 837.036 29.027 837.036 29.027C837.036 29.027 842.011 26.6988 847.922 25.5081C853.834 24.3175 854.464 21.5931 854.464 21.5931L862.025 23.1088C862.025 23.1088 868.405 22.4869 871.153 23.0377C873.904 23.5884 877.972 21.5536 877.972 21.5536L887.263 18.1893L888.8 15.1726L892.926 15.9987L897.052 16.8248L910.057 16.58C910.057 16.58 919.71 19.9397 927.243 20.0232C934.776 20.1079 927.243 20.0232 929.745 19.5741C932.247 19.1249 941.758 15.3306 944.528 15.8396C947.299 16.3486 952.778 17.493 952.778 17.493L959.652 18.871L970.297 15.8249C970.297 15.8249 976.952 17.6329 980.609 17.8914C984.267 18.1487 990.808 14.2347 993.089 14.2167C995.371 14.1986 1001.68 13.7201 1001.68 13.7201L1025.34 17.8293C1025.34 17.8293 1029.5 20.0865 1032.22 19.2073C1034.94 18.327 1035.66 19.8957 1035.66 19.8957L1040.19 18.4297C1040.19 18.4297 1051.77 15.0485 1054.05 15.0304C1056.33 15.0123 1057.95 16.2877 1060.92 16.4084C1063.89 16.528 1066.42 17.5099 1066.42 17.5099L1073.9 14.7325L1081.84 12.5238L1100.62 13.912L1109.05 11.3242C1109.05 11.3242 1112.41 11.999 1113.09 12.1345C1113.77 12.2699 1117.67 12.1006 1120.39 11.2215C1123.11 10.3412 1127.26 12.5983 1127.26 12.5983C1127.26 12.5983 1135.68 10.9585 1140.01 11.375C1144.34 11.7914 1150.32 13.4414 1150.32 13.4414C1150.32 13.4414 1154.21 13.2472 1155.88 14.4266C1157.55 15.606 1160.59 12.6254 1160.59 12.6254L1164.68 12.0205L1166.88 7.71045C1166.88 7.71045 1169.79 4.96915 1171.86 5.38221C1173.92 5.79527 1177.3 3.62273 1177.3 3.62273C1177.3 3.62273 1177.3 3.62272 1182.09 15.0338C1186.88 26.4448 1191.03 16.8248 1191.03 16.8248C1191.03 16.8248 1194.47 17.5133 1196.53 17.9263C1198.59 18.3394 1203.62 18.8732 1210.69 18.3891C1217.75 17.9049 1215.5 19.3529 1218.25 19.9036C1221 20.4543 1223.06 20.8674 1223.06 20.8674C1223.06 20.8674 1223.06 20.8674 1227.19 21.6935C1231.31 22.5196 1232 22.6573 1232 22.6573L1235.51 15.7606C1235.51 15.7606 1252.64 16.343 1258.14 17.4444C1263.64 18.5459 1264.33 18.6836 1268.65 17.6487C1272.96 16.6138 1280.33 19.9905 1280.33 19.9905C1280.33 19.9905 1280.33 19.9905 1284.68 20.3855C1289.02 20.7805 1294.3 22.3143 1294.3 22.3143C1294.3 22.3143 1299.75 20.5548 1303.14 18.3552C1306.53 16.1556 1306.83 19.0707 1306.83 19.0707C1306.83 19.0707 1310.69 19.8968 1315.52 20.8132C1320.36 21.7296 1321.71 22.0535 1321.71 22.0535C1321.71 22.0535 1325.09 21.3595 1331.33 23.9823L1334.94 22.8571C1334.94 22.8571 1334.94 22.8571 1338.84 24.1143C1342.75 25.3716 1338.84 24.1143 1343.22 25.9404C1347.59 27.7664 1350.09 27.3172 1350.09 27.3172L1351.63 24.3006L1359.35 22.523C1359.35 22.523 1359.35 22.5231 1361.91 23.4575C1364.46 24.392 1367.35 23.1765 1368.98 24.4518C1370.6 25.7271 1375.85 25.8298 1375.85 25.8298L1381.35 26.9324L1387.23 24.3107L1403.73 27.6163C1403.73 27.6163 1403.73 27.6163 1410.79 28.6422C1417.84 29.6681 1416.36 31.0946 1419.27 29.843C1422.18 28.5903 1421.17 32.0595 1424.11 30.7493C1427.05 29.439 1425.95 31.5934 1429.61 31.8507C1431.19 31.9625 1435.56 31.9184 1440 31.8315V0H0V20.5695Z" fill="#EBEBEB"/>
</svg>
