<svg width="40" height="40" viewBox="0 0 40 40" fill="none" xmlns="http://www.w3.org/2000/svg">
<path fill-rule="evenodd" clip-rule="evenodd" d="M34.1667 5.83333C30.4167 2.08333 25.3333 0 20 0C9.01667 0 0 9.01667 0 20C0 23.5167 1.08333 26.85 2.83333 29.8667L0 40L10.55 37.4167C13.4667 39.0167 16.6667 40 20 40C30.9833 40 40 30.9833 40 20C40 14.6833 37.9333 9.6 34.1667 5.83333ZM20 36.6667C17.0333 36.6667 14.2 35.6833 11.65 34.1833L11.05 33.8167L4.78333 35.4667L6.45 29.35L6.05 28.7167C4.4 26.0833 3.33333 23.1333 3.33333 20C3.33333 10.8667 10.8667 3.33333 20 3.33333C24.4167 3.33333 28.6667 5.08333 31.8 8.21667C34.9333 11.35 36.6667 15.5833 36.6667 20C36.6667 29.1333 29.1167 36.6667 20 36.6667ZM29.1667 24.0833C28.6667 23.8333 26.2167 22.6333 25.7667 22.4667C25.3167 22.3 24.9833 22.2167 24.65 22.7167C24.3167 23.2167 23.3667 24.3333 23.0667 24.6667C22.7833 25 22.4833 25.0333 21.9833 24.7833C21.4833 24.5333 19.8833 24.0167 17.9833 22.3167C16.5 21 15.5 19.3667 15.2167 18.8667C14.9333 18.3667 15.1833 18.1 15.4333 17.85C15.65 17.6333 15.9333 17.2667 16.1833 16.9833C16.4333 16.7 16.5167 16.4833 16.6833 16.15C16.85 15.8167 16.7667 15.5333 16.65 15.2833C16.5167 15.0333 15.5167 12.5833 15.1 11.5833C14.7 10.6167 14.2833 10.75 13.9833 10.7333C13.7 10.7167 13.3667 10.7167 13.0333 10.7167C12.7 10.7167 12.1667 10.85 11.7 11.3333C11.25 11.8333 9.96667 13.05 9.96667 15.5C9.96667 17.95 11.75 20.3167 12 20.65C12.25 20.9833 15.5167 26.0167 20.5 28.1667C21.6833 28.6833 22.6167 28.9833 23.3333 29.2167C24.5333 29.6 25.6167 29.55 26.4667 29.4167C27.4167 29.2667 29.4167 28.2167 29.8333 27.05C30.25 25.8833 30.25 24.8833 30.1167 24.6833C30 24.4667 29.6667 24.3333 29.1667 24.0833Z" fill="#F5F5F5"/>
</svg>
